<?xml version="1.0" encoding="utf-8"?>
<!-- Generator: Adobe Illustrator 16.0.0, SVG Export Plug-In . SVG Version: 6.00 Build 0)  -->
<!DOCTYPE svg PUBLIC "-//W3C//DTD SVG 1.1//EN" "http://www.w3.org/Graphics/SVG/1.1/DTD/svg11.dtd">
<svg version="1.1" xmlns="http://www.w3.org/2000/svg" xmlns:xlink="http://www.w3.org/1999/xlink" x="0px" y="0px" width="500px"
	 height="500px" viewBox="0 0 500 500" enable-background="new 0 0 500 500" xml:space="preserve">
<g id="Layer_2">
	<circle fill="#F2F2F2" cx="249.833" cy="249.333" r="241.667"/>
</g>
<g id="Layer_1">
	<g id="Ether_4_">
		<g id="LINES_3_">
			<path fill="#999999" d="M249.558,45.91l-132.3,207.9c-0.213,0.336-0.114,0.78,0.222,0.994c0.336,0.213,0.781,0.113,0.994-0.223
				l132.3-207.899c0.214-0.335,0.114-0.78-0.222-0.994S249.771,45.575,249.558,45.91z"/>
			<path fill="#999999" d="M249.558,46.683l132.293,207.899c0.213,0.337,0.658,0.438,0.996,0.224
				c0.336-0.214,0.436-0.659,0.223-0.995L250.773,45.91c-0.214-0.335-0.658-0.435-0.994-0.221
				C249.444,45.902,249.345,46.348,249.558,46.683z"/>
			<path fill="#999999" d="M117.509,254.821l132.301,75.598c0.345,0.197,0.784,0.076,0.98-0.269
				c0.198-0.345,0.078-0.784-0.268-0.981l0,0l-132.3-75.597c-0.345-0.198-0.784-0.078-0.981,0.268S117.163,254.625,117.509,254.821z
				"/>
			<path fill="#999999" d="M250.522,330.419l132.295-75.598c0.344-0.196,0.465-0.636,0.268-0.981s-0.637-0.466-0.982-0.268
				L249.81,329.169c-0.346,0.197-0.467,0.637-0.269,0.981C249.737,330.495,250.177,330.616,250.522,330.419L250.522,330.419z"/>
			<path fill="#999999" d="M250.522,347.229l132.295-75.602c0.344-0.197,0.465-0.637,0.268-0.98
				c-0.197-0.346-0.637-0.467-0.982-0.27L249.81,345.979c-0.346,0.196-0.467,0.636-0.269,0.98
				C249.737,347.306,250.177,347.427,250.522,347.229L250.522,347.229z"/>
			<path fill="#999999" d="M250.522,345.979l-132.3-75.603c-0.345-0.197-0.784-0.076-0.981,0.27
				c-0.197,0.344-0.078,0.783,0.268,0.98l132.301,75.602c0.345,0.198,0.784,0.077,0.98-0.269
				C250.988,346.615,250.868,346.176,250.522,345.979z"/>
			<path fill="#999999" d="M117.282,271.426l132.301,182.701c0.232,0.321,0.683,0.394,1.006,0.161
				c0.321-0.233,0.393-0.684,0.16-1.006l0,0L118.448,270.58c-0.232-0.322-0.682-0.395-1.005-0.16
				C117.121,270.652,117.05,271.102,117.282,271.426z"/>
			<path fill="#999999" d="M250.749,454.127L383.04,271.426c0.234-0.322,0.162-0.771-0.158-1.004
				c-0.32-0.234-0.77-0.162-1.004,0.158l0,0L249.583,453.282c-0.233,0.322-0.162,0.772,0.16,1.006
				C250.065,454.521,250.516,454.448,250.749,454.127L250.749,454.127z"/>
		</g>
		<g id="FACES_3_">
			<polygon fill="#999999" points="250.165,50.296 123,253.036 250.165,325.794 377.46,253.196 			"/>
			<polygon fill="#999999" points="250.243,349.875 126,278.002 250.165,449.544 374.741,278.002 			"/>
		</g>
	</g>
</g>
</svg>
